<svg width="339" height="170" viewBox="0 0 339 170" fill="none" xmlns="http://www.w3.org/2000/svg">
<path d="M260.734 96.5534C266.029 89.6704 292.766 87.5525 305.209 89.4056C320.298 91.5235 322.416 81.7285 313.68 79.8754C321.092 80.1401 324.005 71.1392 314.21 69.8156C321.357 69.5509 321.887 64.2562 316.857 61.6089C297.531 53.9317 262.058 56.0496 249.086 75.9044C237.967 92.3177 248.821 104.76 260.734 96.5534Z" fill="#070723"/>
<path d="M91.5701 83.317C70.6564 71.9336 38.3593 86.7585 25.1227 102.642C21.946 107.407 24.858 111.908 31.2115 108.731C23.2696 114.555 30.1526 120.909 36.5061 117.467C29.6232 123.027 35.9767 130.968 48.419 121.968C58.7435 114.29 83.0987 103.701 91.0406 107.143C105.336 108.996 109.307 92.8473 91.5701 83.317Z" fill="#070723"/>
<path d="M51.0643 132.557C47.0933 124.88 46.2991 99.7301 75.9489 93.1119C75.9489 93.1119 80.4493 48.3724 136.572 50.2255C136.572 50.2255 149.015 29.5765 184.224 31.9591C213.874 33.8122 219.433 50.755 219.433 50.755C219.433 50.755 258.348 55.7849 268.408 89.1409C268.408 89.1409 293.557 90.994 301.235 114.82C306.264 130.968 302.294 143.675 286.674 150.029C258.613 161.412 68.8012 166.707 51.0643 132.557Z" fill="#20204C"/>
<path d="M161.457 88.6115C163.575 88.6115 165.693 88.3467 167.546 87.5526C169.399 86.7584 171.252 85.6994 172.841 84.1111C174.429 82.5227 175.488 80.9343 176.282 79.0812C177.076 77.2281 177.606 75.1102 177.606 72.9924C177.606 70.8745 177.076 68.7567 176.282 66.9036C175.488 65.0505 174.164 63.1974 172.841 61.8737C171.252 60.2853 169.664 59.2264 167.546 58.4322C165.693 57.638 163.575 57.3733 161.457 57.3733C157.221 57.3733 153.251 58.9617 150.074 61.8737C147.162 64.7857 145.309 68.7567 145.309 72.9924C145.309 77.2281 147.162 81.199 150.074 84.1111C153.251 87.0231 157.221 88.8762 161.457 88.6115Z" fill="white"/>
<path d="M164.108 79.3459C166.226 79.3459 168.079 78.5517 169.402 77.2281C170.726 75.9044 171.52 73.7866 171.52 71.9335C171.52 70.8745 171.255 70.0803 170.991 69.0214C170.726 68.2272 169.932 67.1683 169.402 66.6388C168.608 65.8447 167.814 65.3152 167.02 65.0504C166.226 64.7857 165.167 64.521 164.108 64.521C161.99 64.521 160.137 65.3152 158.813 66.6388C157.49 67.9625 156.695 70.0803 156.695 71.9335C156.695 74.0513 157.49 75.9044 158.813 77.2281C160.137 78.5517 162.255 79.3459 164.108 79.3459Z" fill="#000207"/>
<path d="M191.637 88.6115C193.755 88.6115 195.873 88.3467 197.726 87.5526C199.579 86.7584 201.432 85.6994 203.02 84.1111C204.609 82.5227 205.668 80.9343 206.462 79.0812C207.256 77.2281 207.785 75.1102 207.785 72.9924C207.785 70.8745 207.256 68.7567 206.462 66.9036C205.668 65.0505 204.344 63.1974 203.02 61.8737C201.432 60.2853 199.843 59.2264 197.726 58.4322C195.873 57.638 193.755 57.3733 191.637 57.3733C189.519 57.3733 187.401 57.638 185.548 58.4322C183.695 59.2264 181.842 60.2853 180.253 61.8737C178.665 63.4621 177.606 65.0505 176.812 66.9036C176.018 68.7567 175.488 70.8745 175.488 72.9924C175.488 75.1102 176.018 77.2281 176.812 79.0812C177.606 80.9343 178.93 82.7874 180.253 84.1111C181.842 85.6994 183.43 86.7584 185.548 87.5526C187.666 88.3467 189.519 88.6115 191.637 88.6115Z" fill="white"/>
<path d="M189.522 79.3459C191.64 79.3459 193.493 78.5517 194.816 77.2281C196.14 75.9044 196.934 73.7866 196.934 71.9335C196.934 70.8745 196.67 70.0803 196.405 69.0214C196.14 68.2272 195.346 67.1683 194.816 66.6388C194.022 65.8447 193.228 65.3152 192.434 65.0504C191.64 64.7857 190.581 64.521 189.522 64.521C187.404 64.521 185.551 65.3152 184.227 66.6388C182.904 67.9625 182.109 70.0803 182.109 71.9335C182.109 73.7866 182.904 75.9044 184.227 77.2281C185.551 78.5517 187.669 79.3459 189.522 79.3459Z" fill="#000207"/>
<path d="M138.165 116.408C135.253 112.702 153.519 97.6123 177.874 97.3475C203.818 96.8181 219.966 113.496 215.996 116.408C212.025 119.32 202.494 104.76 178.404 104.495C156.431 103.966 141.871 121.438 138.165 116.408Z" stroke="#2050CE" stroke-width="11.5131" stroke-miterlimit="10"/>
<path d="M140.281 114.82C162.783 96.2885 195.61 95.759 214.935 114.82" stroke="#19193D" stroke-width="3.30648" stroke-miterlimit="10" stroke-linecap="round"/>
<path d="M179.636 69.897C198.411 66.9338 212.486 57.2729 211.073 48.3186C209.659 39.3644 193.294 34.5077 174.519 37.4709C155.744 40.4341 141.669 50.095 143.082 59.0492C144.495 68.0034 160.861 72.8601 179.636 69.897Z" fill="#20204C"/>
<path d="M240.32 104.403C245.258 83.0358 238.407 63.2051 225.017 60.1101C211.627 57.0151 196.768 71.8277 191.829 93.1951C186.89 114.562 193.742 134.393 207.132 137.488C220.522 140.583 235.381 125.771 240.32 104.403Z" fill="#20204C"/>
<path d="M154.57 134.942C164.379 130.041 165.34 112.072 156.715 94.8073C148.09 77.5422 133.146 67.5186 123.336 72.4191C113.527 77.3196 112.566 95.2884 121.191 112.554C129.816 129.819 144.76 139.842 154.57 134.942Z" fill="#20204C"/>
</svg>
